HIERARCHY
ROOT Hips
{
	OFFSET 0.000000 0.000000 0.000000
	CHANNELS 6 Xposition Yposition Zposition Xrotation Yrotation Zrotation
	JOINT LeftUpLeg_virtual
	{
		OFFSET 0.000000 0.000000 0.000000
		CHANNELS 3 Xrotation Yrotation Zrotation
		JOINT LeftUpLeg
		{
			OFFSET 13.026900 -6.336304 -1.092800
			CHANNELS 3 Xrotation Yrotation Zrotation
			JOINT LeftLeg
			{
				OFFSET 0.524474 -46.096886 9.782700
				CHANNELS 3 Xrotation Yrotation Zrotation
				JOINT LeftFoot
				{
					OFFSET -0.524474 -53.427422 -12.948200
					CHANNELS 3 Xrotation Yrotation Zrotation
					JOINT LeftToeBase
					{
						OFFSET 0.192200 -14.009700 16.364100
						CHANNELS 3 Xrotation Yrotation Zrotation
						JOINT LeftToe_End
						{
							OFFSET -1.784700 -0.561700 9.474800
							CHANNELS 3 Xrotation Yrotation Zrotation
							End Site
							{
								OFFSET 0 0 0
							}
						}
					}
				}
			}
		}
	}
	JOINT RightUpLeg_virtual
	{
		OFFSET 0.000000 0.000000 0.000000
		CHANNELS 3 Xrotation Yrotation Zrotation
		JOINT RightUpLeg
		{
			OFFSET -12.883000 -6.336304 -1.092800
			CHANNELS 3 Xrotation Yrotation Zrotation
			JOINT RightLeg
			{
				OFFSET -0.524587 -46.096825 9.782800
				CHANNELS 3 Xrotation Yrotation Zrotation
				JOINT RightFoot
				{
					OFFSET 0.524587 -53.427383 -12.948300
					CHANNELS 3 Xrotation Yrotation Zrotation
					JOINT RightToeBase
					{
						OFFSET -0.192200 -14.009700 16.364100
						CHANNELS 3 Xrotation Yrotation Zrotation
						JOINT RightToe_End
						{
							OFFSET 1.784700 -0.561700 9.474800
							CHANNELS 3 Xrotation Yrotation Zrotation
							End Site
							{
								OFFSET 0 0 0
							}
						}
					}
				}
			}
		}
	}
	JOINT Spine_virtual
	{
		OFFSET 0.000000 0.000000 0.000000
		CHANNELS 3 Xrotation Yrotation Zrotation
		JOINT Spine
		{
			OFFSET 0.072000 7.257294 -0.789700
			CHANNELS 3 Xrotation Yrotation Zrotation
			JOINT Spine1
			{
				OFFSET 0.000000 12.508769 -0.658067
				CHANNELS 3 Xrotation Yrotation Zrotation
				JOINT Spine1_split
				{
					OFFSET 0.000000 12.508769 -0.658067
					CHANNELS 3 Xrotation Yrotation Zrotation
					JOINT Spine2
					{
						OFFSET 0.000000 12.508769 -0.658067
						CHANNELS 3 Xrotation Yrotation Zrotation
						JOINT Neck_virtual
						{
							OFFSET 0.000000 0.000000 0.000000
							CHANNELS 3 Xrotation Yrotation Zrotation
							JOINT Neck
							{
								OFFSET 0.000000 14.033295 7.520400
								CHANNELS 3 Xrotation Yrotation Zrotation
								JOINT Head
								{
									OFFSET 0.000000 8.198502 5.703100
									CHANNELS 3 Xrotation Yrotation Zrotation
									JOINT HeadTop_End
									{
										OFFSET 0.000000 17.760803 13.332701
										CHANNELS 3 Xrotation Yrotation Zrotation
										End Site
										{
											OFFSET 0 0 0
										}
									}
								}
							}
						}
						JOINT LeftShoulder_virtual
						{
							OFFSET 0.000000 0.000000 0.000000
							CHANNELS 3 Xrotation Yrotation Zrotation
							JOINT LeftShoulder
							{
								OFFSET 6.292450 5.785301 -0.669000
								CHANNELS 3 Xrotation Yrotation Zrotation
								JOINT LeftShoulder_split
								{
									OFFSET 6.292450 5.785301 -0.669000
									CHANNELS 3 Xrotation Yrotation Zrotation
									JOINT LeftArm
									{
										OFFSET 13.907140 -6.093903 1.965100
										CHANNELS 3 Xrotation Yrotation Zrotation
										JOINT LeftForeArm
										{
											OFFSET 34.140198 0.000000 0.000000
											CHANNELS 3 Xrotation Yrotation Zrotation
											JOINT LeftHand
											{
												OFFSET 40.960209 0.000000 0.000000
												CHANNELS 3 Xrotation Yrotation Zrotation
												End Site
												{
													OFFSET 0 0 0
												}
											}
										}
									}
								}
							}
						}
						JOINT RightShoulder_virtual
						{
							OFFSET 0.000000 0.000000 0.000000
							CHANNELS 3 Xrotation Yrotation Zrotation
							JOINT RightShoulder
							{
								OFFSET -6.292450 5.785301 -0.669000
								CHANNELS 3 Xrotation Yrotation Zrotation
								JOINT RightShoulder_split
								{
									OFFSET -6.292450 5.785301 -0.669000
									CHANNELS 3 Xrotation Yrotation Zrotation
									JOINT RightArm
									{
										OFFSET -13.907140 -6.093903 1.965100
										CHANNELS 3 Xrotation Yrotation Zrotation
										JOINT RightForeArm
										{
											OFFSET -34.140198 0.000000 0.000000
											CHANNELS 3 Xrotation Yrotation Zrotation
											JOINT RightHand
											{
												OFFSET -40.960209 0.000000 0.000000
												CHANNELS 3 Xrotation Yrotation Zrotation
												End Site
												{
													OFFSET 0 0 0
												}
											}
										}
									}
								}
							}
						}
					}
				}
			}
		}
	}
}
MOTION
Frames: 8
Frame Time: 0.03333333
15.344217 101.117332 -22.642488 0.000000 0.000000 0.000000 12.255359 8.826560 1.352025 -10.616318 17.913235 17.047493 38.218501 -5.758081 0.068116 -6.698883 -5.495366 -11.686746 1.077703 -4.458696 2.885116 0.000000 0.000000 0.000000 10.065138 5.496824 2.007614 -53.330619 5.540292 -5.015456 54.410393 0.024016 -1.173703 -3.304869 -2.761787 25.107454 6.146769 1.603008 -6.190428 0.000000 0.000000 0.000000 14.444315 9.934647 1.205000 -13.121001 -7.254428 -3.118309 5.173960 -5.325237 3.465905 0.029553 -0.374978 -0.010130 0.000000 0.000000 0.000000 3.622909 -3.622574 3.986139 10.142322 11.608807 5.526709 -6.604739 32.720895 1.924156 0.000000 0.000000 0.000000 7.599339 -4.583022 4.181688 7.444268 -9.176791 0.802786 4.422951 -6.172030 3.498819 -40.283103 1.470983 -21.219192 179.358923 -63.244150 178.630579 0.000000 0.000000 0.000000 7.133631 -4.618738 3.932971 -3.416555 -7.358205 21.236906 -1.478736 4.674911 -6.186397 -42.392413 -1.695209 31.286180 -156.574847 50.265022 172.712712 0.000000 0.000000 0.000000 
15.742356 103.243858 -24.658148 0.000000 0.000000 0.000000 13.552484 9.925014 -0.522395 -24.080566 12.130174 21.448210 52.658863 -4.234159 -0.465671 4.712288 -4.977114 -8.449237 5.965884 -3.817519 -1.066092 0.000000 0.000000 0.000000 11.388341 6.795810 0.664658 -47.604236 3.497600 -4.154251 49.693301 0.984523 -2.196564 -6.591324 -2.100121 22.781401 1.755746 2.391392 -5.736665 0.000000 0.000000 0.000000 14.938851 9.226907 0.553755 -9.138441 -6.821612 -1.984603 4.617851 -5.457435 1.813453 -0.003955 -0.154170 -0.069773 0.000000 0.000000 0.000000 3.053798 -3.763138 2.499324 11.270599 11.307217 6.572399 -9.518811 30.915328 5.780395 0.000000 0.000000 0.000000 6.962060 -4.843250 3.093511 8.761020 -10.028821 9.751482 2.874912 -5.472248 1.368856 -51.206058 -1.626485 -11.900353 -170.820900 -66.947383 -174.587572 0.000000 0.000000 0.000000 6.110113 -4.720056 2.745777 -4.775463 -5.643297 13.049065 -1.292957 2.433060 -4.604552 -55.808373 1.216943 26.534158 -148.847567 55.029861 164.121099 0.000000 0.000000 0.000000 
15.829976 104.832626 -26.148207 0.000000 0.000000 0.000000 14.595590 9.730582 -1.369222 -35.593916 6.938647 22.921606 64.719778 -1.346384 -0.934979 13.508137 -2.558610 -4.557381 5.849089 -3.157340 -5.471102 0.000000 0.000000 0.000000 12.539461 7.966668 -0.298946 -40.396450 -0.426800 -3.411729 45.866797 0.068453 -2.281349 -12.816514 -3.207665 17.473724 -3.548517 3.156850 -5.462164 0.000000 0.000000 0.000000 15.398552 8.184876 0.418737 -4.985840 -6.218313 -1.207259 4.153709 -5.688419 0.013101 -0.045436 0.095059 -0.056246 0.000000 0.000000 0.000000 2.849959 -3.981855 0.920998 12.240449 11.087210 7.116813 -12.868883 29.568551 8.535793 0.000000 0.000000 0.000000 6.384127 -5.265303 1.600180 9.825166 -9.299886 17.161093 1.849391 -4.636326 1.541989 -58.710093 -5.381355 -1.995670 -157.931773 -73.194425 -164.465546 0.000000 0.000000 0.000000 5.242011 -4.906775 1.392420 -6.051898 -3.407642 3.574136 0.573946 -0.217305 -2.980579 -65.033168 3.022125 21.162446 -134.626690 62.155548 148.166023 0.000000 0.000000 0.000000 
15.781193 106.216003 -27.345808 0.000000 0.000000 0.000000 15.191883 8.753322 -0.792126 -43.676837 4.669368 21.662095 71.542434 1.756855 -1.124660 17.447285 -0.334754 -1.349718 0.091146 -2.150582 -8.839784 0.000000 0.000000 0.000000 13.055946 7.809161 -0.022373 -36.071435 -4.504268 -3.750026 44.798142 -1.083469 -1.717769 -16.583677 -4.238736 12.600754 -5.280159 3.722962 -4.907574 0.000000 0.000000 0.000000 15.768349 6.685775 0.910189 -1.518378 -5.655895 -1.222818 3.825066 -5.900874 -1.448780 -0.065743 0.278869 -0.025743 0.000000 0.000000 0.000000 2.950367 -4.151585 -0.348366 12.904441 10.951127 7.078730 -16.615560 28.826906 9.938554 0.000000 0.000000 0.000000 5.911164 -5.661945 0.101438 10.230648 -7.610742 21.226787 1.050396 -4.661596 2.270488 -61.906922 -7.507697 6.054104 -139.730589 -79.185771 -148.184178 0.000000 0.000000 0.000000 4.682237 -5.056796 0.213421 -6.862216 -1.320799 -5.271510 3.448989 -1.646596 -0.956776 -68.561357 3.036186 17.260371 -112.707936 67.611646 123.881135 0.000000 0.000000 0.000000 
15.328578 107.505981 -28.152811 0.000000 0.000000 0.000000 15.767553 7.575929 0.878980 -48.984177 5.376690 18.966146 73.143826 3.327137 0.019885 18.116476 -0.768072 -0.893927 -6.478297 -0.971078 -10.414763 0.000000 0.000000 0.000000 13.523695 6.694063 1.540491 -34.371431 -6.668478 -4.656041 44.465720 -0.758107 -1.249768 -17.909919 -4.276918 10.462632 -5.789860 4.251713 -4.420283 0.000000 0.000000 0.000000 16.263773 5.371242 1.775431 0.559403 -5.282088 -2.283176 3.677840 -5.948889 -2.188808 -0.008378 0.293284 -0.033094 0.000000 0.000000 0.000000 3.027389 -4.175891 -1.020452 13.159828 10.954191 6.424242 -20.181747 28.670112 10.010258 0.000000 0.000000 0.000000 5.362845 -5.790969 -1.037210 9.937211 -5.702956 20.296776 1.151467 -5.635452 2.846263 -60.982811 -6.835138 10.349552 -127.413190 -82.610100 -136.765959 0.000000 0.000000 0.000000 4.537792 -5.032683 -0.530915 -7.154781 -0.014134 -11.348906 6.227761 -0.522146 0.719390 -66.867197 1.204924 16.044803 -93.873382 69.564507 102.872088 0.000000 0.000000 0.000000 
14.538753 108.584442 -28.070288 0.000000 0.000000 0.000000 16.568804 5.324624 2.821177 -51.603329 8.491184 15.909411 69.409694 3.258024 2.071926 16.040190 -3.514285 -2.225389 -8.855405 -0.450039 -9.816918 0.000000 0.000000 0.000000 14.712064 5.162446 3.251221 -32.166851 -6.098469 -4.832628 42.570862 1.136236 -1.208797 -18.769502 -3.652882 10.490098 -8.711697 4.846828 -4.238156 0.000000 0.000000 0.000000 16.574296 4.105647 2.385232 1.023797 -5.033650 -4.078202 3.657779 -5.714152 -1.996778 0.083160 0.320833 0.066740 0.000000 0.000000 0.000000 2.871283 -3.923405 -0.966691 12.897364 10.999514 5.150681 -22.697579 28.857491 8.907670 0.000000 0.000000 0.000000 4.918505 -5.534952 -1.494300 9.260754 -4.032387 14.438393 1.810768 -7.081544 2.692672 -56.111230 -3.788379 9.954424 -145.311947 -83.592896 -154.668213 0.000000 0.000000 0.000000 4.846805 -4.644447 -0.653000 -7.210523 0.145236 -13.404989 8.938449 2.764220 3.321954 -61.474592 -1.353443 18.234657 -90.399090 71.102925 97.979480 0.000000 0.000000 0.000000 
13.653622 108.826370 -27.417109 0.000000 0.000000 0.000000 17.302157 1.714050 4.144462 -52.917505 12.616228 13.477829 62.066769 2.178469 4.186440 11.316450 -6.966235 -4.198587 -6.106227 -0.557920 -7.670666 0.000000 0.000000 0.000000 16.322383 2.946209 3.968391 -28.040268 -3.797032 -3.576897 39.010154 2.772156 -1.364597 -19.701366 -4.349303 10.828061 -12.009068 5.329467 -4.259766 0.000000 0.000000 0.000000 16.478161 2.701674 2.397866 0.131111 -4.627848 -5.971396 3.806010 -5.079545 -0.971903 0.123582 0.442292 0.133619 0.000000 0.000000 0.000000 2.327050 -3.269904 -0.268016 12.361894 11.143087 3.337209 -23.481132 28.920148 6.666181 0.000000 0.000000 0.000000 4.584195 -4.815513 -1.243509 8.591833 -2.973108 4.854816 2.203983 -8.779256 2.260640 -48.355820 0.153241 4.722726 -172.266100 -82.541279 178.882053 0.000000 0.000000 0.000000 5.479007 -3.753847 -0.158982 -7.281823 -1.008545 -11.606481 10.864693 7.313121 6.920655 -53.474022 -3.620703 22.792333 -100.842989 73.330441 107.954493 0.000000 0.000000 0.000000 
12.886206 107.976784 -26.734873 0.000000 0.000000 0.000000 17.555019 -2.616172 4.312229 -53.380418 16.462523 11.860296 54.345568 0.892150 6.040824 4.588461 -9.866364 -5.987871 -1.457750 -0.709411 -4.682446 0.000000 0.000000 0.000000 17.077331 0.050435 3.346126 -22.789256 -0.944505 -1.525528 35.651252 2.880237 -1.449748 -21.231708 -7.118168 10.673284 -12.408532 5.530120 -4.457873 0.000000 0.000000 0.000000 15.942215 1.285057 1.582257 -1.486173 -3.840970 -7.370154 4.049495 -4.051815 0.532404 0.111180 0.524331 0.148379 0.000000 0.000000 0.000000 1.442203 -2.240782 0.803391 11.526145 11.381891 1.050773 -22.438020 28.358179 3.607734 0.000000 0.000000 0.000000 4.300905 -3.658161 -0.445666 8.013425 -2.667177 -6.411818 2.275090 -9.304669 3.002630 -38.298059 3.026268 -3.724613 170.874408 -82.351987 162.793447 0.000000 0.000000 0.000000 6.220501 -2.406960 0.715218 -7.280202 -3.255045 -6.658278 12.014856 9.513642 10.733724 -44.270076 -4.979588 27.444134 -114.992081 75.136234 122.355094 0.000000 0.000000 0.000000 
